HIERARCHY
ROOT Hips
{
	OFFSET	0.00	0.00	0.00
	CHANNELS 6 Xposition Yposition Zposition Zrotation Xrotation Yrotation
	JOINT Spine
	{
		OFFSET	 0.00	0.01	 0.00
		CHANNELS 3 Zrotation Xrotation Yrotation
		JOINT Spine1
		{
			OFFSET	 0.00	 2.45913012437421	 0.00
			CHANNELS 3 Zrotation Xrotation Yrotation
            JOINT Neck
            {
                OFFSET	 0.00	 2.48462964506057	 0.00
                CHANNELS 3 Zrotation Xrotation Yrotation
                JOINT Head
                {
                    OFFSET	 0.00	 0.927524780924562	 0.00
                    CHANNELS 3 Zrotation Xrotation Yrotation
                    End Site 
                    {
                        OFFSET	 0.00	 1.14999962169752	 0.00
                    }
                }
            }
			JOINT LeftShoulder
			{
				OFFSET	 0.00	 2.48462964506057	 0.00
				CHANNELS 3 Zrotation Xrotation Yrotation
				JOINT LeftUpArm
				{
					OFFSET	 0.00	 1.24881979654096	 0.00
					CHANNELS 3 Zrotation Xrotation Yrotation
					JOINT LeftForeArm
					{
						OFFSET	 0.00	2.59758046908119	 0.00
						CHANNELS 3 Zrotation Xrotation Yrotation
						JOINT LeftHand
						{
							OFFSET	 0.00	2.45542024364365	 0.00
							CHANNELS 3 Zrotation Xrotation Yrotation
							JOINT LeftHandThumb 
							{
								OFFSET	 0.00	0.00	 0.00
								CHANNELS 3 Zrotation Xrotation Yrotation
								End Site
								{
									OFFSET	 0.00	0.00	1.00000003353624
								}
							}
							JOINT L_Wrist_End 
							{
								OFFSET	 0.00	0.99999967115358	 0.00
								CHANNELS 3 Zrotation Xrotation Yrotation
								End Site 
								{
									OFFSET	 0.00	 0.00	 0.00
								}
							}
						}
					}
				}
			}
			JOINT RightShoulder
			{
				OFFSET	 0.00	 2.48462964506057	 0.00
				CHANNELS 3 Zrotation Xrotation Yrotation
				JOINT RightUpArm
				{
					OFFSET	 0.00	 1.24881979654096	 0.00
					CHANNELS 3 Zrotation Xrotation Yrotation
					JOINT RightForeArm
					{
						OFFSET	 0.00	2.59758046908119	 0.00
						CHANNELS 3 Zrotation Xrotation Yrotation
						JOINT RightHand
						{
							OFFSET	 0.00	2.45542024364365	 0.00
							CHANNELS 3 Zrotation Xrotation Yrotation
							JOINT RightHandThumb 
							{
								OFFSET	 0.00	0.00	 0.00
								CHANNELS 3 Zrotation Xrotation Yrotation
								End Site
								{
									OFFSET	 0.00	0.00	1.00000003353624
								}
							}
							JOINT R_Wrist_End 
							{
								OFFSET	 0.00	0.99999967115358	 0.00
								CHANNELS 3 Zrotation Xrotation Yrotation
								End Site 
								{
									OFFSET	 0.00	 0.00	 0.00
								}
							}
						}
					}
				}
			}
		}
	}
	JOINT LeftUpLeg
	{
		OFFSET	 1.2719394002717	 0.00	 0.00
		CHANNELS 3 Zrotation Xrotation Yrotation
		JOINT LeftLowLeg
		{
			OFFSET	 0.00	-4.3429100912261	 0.00
			CHANNELS 3 Zrotation Xrotation Yrotation
			JOINT LeftFoot
			{
				OFFSET	 0.00	-4.48767017425826	 0.00
				CHANNELS 3 Zrotation Xrotation Yrotation
				JOINT LeftToeBase
                {
                    OFFSET	 0.00	0.00	 1.51507020887566
                    CHANNELS 3 Zrotation Xrotation Yrotation
                    End Site 
                    {
                        OFFSET	 0.00	0.00	 0.75000010571191
                    }
                }
			}
		}
	}
	JOINT RightUpLeg
	{
		OFFSET	 -1.2719393604653	 0.00	 0.00
		CHANNELS 3 Zrotation Xrotation Yrotation
		JOINT RightLowLeg
		{
			OFFSET	 0.00	-4.3429100912261	 0.00
			CHANNELS 3 Zrotation Xrotation Yrotation
			JOINT RightFoot
			{
				OFFSET	 0.00	-4.48767017425826	 0.00
				CHANNELS 3 Zrotation Xrotation Yrotation
				JOINT RightToeBase
                {
                    OFFSET	 0.00	0.00	 1.51507020887566
                    CHANNELS 3 Zrotation Xrotation Yrotation
                    End Site 
                    {
                        OFFSET	 0.00	0.00	 0.749999965609858
                    }
                }   
			}
		}
	}
}
MOTION 
Frames:	18 
Frame Time: 0.02 
  1.4187899780273439 5.589990234375 9.760239868164062 -170.074 80.0676 157.832 5.15447 -6.38442 -3.55989 11.9193 12.342 -3.31039 -3.86254 24.5544 -0.0606842 17.2693 -49.312 21.6762 -110.4973 -6.44157 2.76175 -45.8886 6.01671 30.6658 0.0 41.9153 0.0 16.1655 -9.35439 5.14616 0.0 0.0 0.0 0.0 0.0 0.0 110.253296 -0.787929 -7.77489 30.6688 16.5787 -24.1668 0.0 40.812 0.0 -13.0546 0.320085 -2.67063 0.0 0.0 0.0 0.0 0.0 0.0 8.41739 -15.2697 2.05935 0.0 22.4791 0.0 -13.6124 1.0733004 0.717873 0.0 -39.3232 0.0 6.87639 -9.39021 1.22194 0.0 5.44294 0.0 7.59539 12.40736 0.497581 0.0 -28.7278 0.0 
  1.4766900634765625 5.592360229492187 9.759769897460938 -169.696 79.9223 157.375 5.25423 -6.14675 -3.51864 12.2072 12.4409 -3.29283 -3.99312 24.1711 0.0656124 17.2304 -49.4297 21.6082 -110.7181 -6.40559 2.8123 -45.6975 6.37527 31.1044 0.0 41.9024 0.0 16.1767 -9.27673 4.85105 0.0 0.0 0.0 0.0 0.0 0.0 110.435196 -0.499591 -8.22004 30.736 17.3116 -23.5624 0.0 39.3279 0.0 -12.7076 0.0934361 -1.95453 0.0 0.0 0.0 0.0 0.0 0.0 8.21164 -15.2172 2.03078 0.0 22.1088 0.0 -13.983 0.94839954 0.742022 0.0 -39.0968 0.0 6.67255 -9.59677 1.39575 0.0 5.44355 0.0 7.83935 12.47844 0.381835 0.0 -28.7341 0.0 
  1.534429931640625 5.5946197509765625 9.761110229492187 -169.802 79.8435 157.354 5.16795 -5.91873 -3.53527 12.5024 12.6912 -3.32704 -4.12043 23.6288 0.351492 17.2913 -49.4145 21.6314 -111.0365 -6.28621 2.66113 -45.3107 6.57754 31.7022 0.0 41.924 0.0 16.1433 -9.29946 4.67613 0.0 0.0 0.0 0.0 0.0 0.0 110.6805 -0.11648 -8.56895 30.7588 18.107 -23.178 0.0 37.6561 0.0 -12.2828 -0.103992 -1.07647 0.0 0.0 0.0 0.0 0.0 0.0 7.95045 -15.0983 2.36037 0.0 21.5502 0.0 -13.9161 1.1787004 0.691623 0.0 -38.8959 0.0 6.38745 -9.81622 1.62934 0.0 5.53116 0.0 8.06144 12.48338 0.208204 0.0 -28.619 0.0 
  1.5938499450683594 5.59916015625 9.764829711914063 -170.359 79.6838 157.815 4.95581 -5.72909 -3.60443 12.8516 12.9174 -3.39105 -4.21379 23.0204 0.654311 17.3459 -49.3041 21.6659 -111.3674 -6.1068 2.65642 -44.8851 6.88304 32.2123 0.0 41.8569 0.0 15.4721 -9.02696 6.72473 0.0 0.0 0.0 0.0 0.0 0.0 110.8711 0.23723 -8.85228 30.821 19.0487 -23.1779 0.0 35.7666 0.0 -11.9591 -0.542141 0.161235 0.0 0.0 0.0 0.0 0.0 0.0 7.70211 -15.1178 3.27237 0.0 20.9635 0.0 -13.8034 1.6331997 0.289109 0.0 -38.9011 0.0 6.06186 -10.2076 1.88059 0.0 5.70372 0.0 8.1617 12.51871 -0.0736703 0.0 -28.6846 0.0 
  1.6557600402832031 5.6097802734375 9.770650024414062 -171.343 79.4754 158.779 4.7776 -5.47013 -3.66895 12.9228 13.0873 -3.45776 -4.04499 22.2103 0.777263 17.473 -49.1872 21.842 -111.5376 -5.83549 2.73211 -44.4766 7.27613 32.6258 0.0 41.6198 0.0 15.4972 -8.77194 6.40414 0.0 0.0 0.0 0.0 0.0 0.0 111.157 0.51009 -8.90643 31.082 20.0465 -23.3432 0.0 33.7453 0.0 -11.5903 -0.834038 0.937538 0.0 0.0 0.0 0.0 0.0 0.0 7.38827 -15.3421 4.30824 0.0 20.532 0.0 -13.4136 2.1379995 -0.238881 0.0 -38.4347 0.0 5.66327 -10.7513 1.85248 0.0 5.95495 0.0 8.14977 12.58164 -0.221691 0.0 -28.6598 0.0 
  1.7188699340820313 5.624829711914063 9.778189697265624 -172.466 79.2669 159.802 4.55764 -5.10602 -3.70788 12.9578 13.3159 -3.50422 -3.89854 21.177 0.940756 17.5791 -49.1114 22.0079 -111.7074 -5.62699 2.63718 -43.9771 7.6514 33.5139 0.0 41.3666 0.0 16.3159 -8.35367 5.75902 0.0 0.0 0.0 0.0 0.0 0.0 111.3678 0.7811 -8.89493 31.4967 21.0708 -23.1732 0.0 31.9741 0.0 -10.7594 -1.57348 0.422043 0.0 0.0 0.0 0.0 0.0 0.0 6.97016 -15.4901 4.87373 0.0 19.9333 0.0 -13.1186 2.6252003 -0.351185 0.0 -38.309998 0.0 5.27557 -11.4065 2.05818 0.0 6.31322 0.0 8.02885 12.70003 -0.609084 0.0 -28.646301 0.0 
  1.784080047607422 5.645419921875 9.785499877929688 -173.533 79.0988 160.636 4.40105 -4.50746 -3.67315 12.7975 13.4273 -3.47423 -3.68131 20.1919 1.06323 17.7683 -49.2499 22.4186 -111.6042 -5.37747 2.5654 -43.7742 8.10926 33.9962 0.0 40.9439 0.0 16.5659 -8.44844 5.29394 0.0 0.0 0.0 0.0 0.0 0.0 111.5547 1.20349 -8.79473 32.0934 21.776 -23.2996 0.0 30.3055 0.0 -10.7214 -1.57237 -0.140734 0.0 0.0 0.0 0.0 0.0 0.0 6.55566 -15.4711 5.33576 0.0 19.1082 0.0 -12.9423 3.1021004 -0.461631 0.0 -38.2258 0.0 4.90485 -12.1567 2.34762 0.0 6.82194 0.0 7.91673 12.90402 -0.950829 0.0 -28.7432 0.0 
  1.8490899658203126 5.672550048828125 9.789849853515625 -174.431 78.9403 161.287 4.35784 -3.71919 -3.50466 12.3959 13.4686 -3.31848 -3.32593 18.9908 1.0375 17.9977 -49.4842 22.836 -111.3644 -5.05303 2.5293 -43.5145 8.71472 34.5214 0.0 40.6123 0.0 16.8519 -8.65021 4.92996 0.0 0.0 0.0 0.0 0.0 0.0 111.813995 1.51088 -8.64431 32.6651 22.3122 -23.3847 0.0 29.1673 0.0 -10.6939 -1.73385 -0.800853 0.0 0.0 0.0 0.0 0.0 0.0 6.19048 -15.5301 5.92386 0.0 18.4172 0.0 -12.621 3.5021 -0.661349 0.0 -38.1097 0.0 4.59942 -13.0092 2.90953 0.0 7.50388 0.0 7.9302 12.99974 -1.525 0.0 -28.7262 0.0 
  1.9160299682617188 5.7048101806640625 9.791329956054687 -175.544 78.6888 162.128 4.35112 -2.92885 -3.2959 11.894 13.5644 -3.13615 -3.04208 17.7043 1.06191 18.3357 -49.9482 23.3344 -111.1276 -4.72738 2.48157 -43.1497 9.43784 35.049 0.0 40.3788 0.0 17.1122 -8.55829 4.68087 0.0 0.0 0.0 0.0 0.0 0.0 112.0774 1.86691 -8.5382 33.1539 22.6945 -23.0494 0.0 28.7035 0.0 -10.4723 -2.00949 -1.65861 0.0 0.0 0.0 0.0 0.0 0.0 5.77529 -15.8179 6.3873 0.0 17.9174 0.0 -12.2758 3.7921 -0.678693 0.0 -37.9953 0.0 4.29981 -14.1045 3.87163 0.0 8.42895 0.0 8.17039 12.903 -2.27785 0.0 -28.569801 0.0 
  1.9843499755859375 5.7402099609375 9.790960083007812 -176.764 78.2282 163.134 4.37336 -2.30538 -3.09628 11.4227 13.7589 -2.97763 -2.87126 16.2517 1.14674 18.688 -50.4804 23.7556 -111.0397 -4.33822 2.37467 -42.6588 10.2421 35.5364 0.0 40.1668 0.0 17.3966 -8.3239 4.55076 0.0 0.0 0.0 0.0 0.0 0.0 112.259 2.1893 -8.50282 33.5098 23.0755 -23.2188 0.0 28.5984 0.0 -10.9515 -2.10085 -1.27083 0.0 0.0 0.0 0.0 0.0 0.0 5.35761 -16.4152 6.76656 0.0 17.5366 0.0 -11.8448 4.0214005 -0.591784 0.0 -37.9874 0.0 3.95728 -15.3854 4.26156 0.0 9.28597 0.0 8.47877 12.88783 -2.44597 0.0 -28.5347 0.0 
  2.0519400024414063 5.775679931640625 9.788350219726562 -178.123 77.601 164.319 4.4308 -1.89269 -2.78547 10.9063 14.0678 -2.72014 -2.72352 14.7834 1.18641 19.0768 -51.0037 24.017 -110.9944 -3.80448 2.34034 -42.1143 11.2576 35.7048 0.0 40.1241 0.0 17.2535 -8.71651 4.85361 0.0 0.0 0.0 0.0 0.0 0.0 112.3685 2.39389 -8.56733 33.7975 23.4028 -23.0017 0.0 28.8091 0.0 -11.1632 -1.44828 -2.28152 0.0 0.0 0.0 0.0 0.0 0.0 4.93119 -17.2618 7.00937 0.0 17.301 0.0 -11.4421 4.1602 -0.448918 0.0 -37.953102 0.0 3.56107 -16.8404 4.19685 0.0 10.1476 0.0 8.72914 12.8623295 -2.20494 0.0 -28.5932 0.0 
  2.119720001220703 5.809140014648437 9.784600219726563 -179.477 76.9662 165.553 4.48271 -1.52491 -2.54777 10.4591 14.3655 -2.53244 -2.99232 13.4906 1.52522 19.6857 -51.5301 24.0476 -111.0401 -3.35352 2.32506 -41.5802 12.2941 35.7991 0.0 40.0232 0.0 17.3748 -8.69281 5.17646 0.0 0.0 0.0 0.0 0.0 0.0 112.598404 2.64422 -8.8269 33.6143 23.5887 -22.7724 0.0 29.9771 0.0 -11.353 -1.87265 -2.76887 0.0 0.0 0.0 0.0 0.0 0.0 4.46312 -18.1394 7.09552 0.0 17.1197 0.0 -11.0386 4.2778997 -0.30438 0.0 -37.9193 0.0 3.07094 -18.2249 3.59 0.0 10.8308 0.0 8.74075 12.92212 -1.59024 0.0 -28.7989 0.0 
  2.187270050048828 5.841380004882812 9.77989013671875 179.692 76.4808 166.326 4.40641 -1.4682 -2.40994 10.4353 15.2911 -2.50822 -3.52042 12.5155 1.90365 20.3016 -52.2095 24.0786 -111.0337 -2.63016 2.44708 -41.3717 13.3252 35.1182 0.0 40.0192 0.0 17.6226 -8.72823 5.02481 0.0 0.0 0.0 0.0 0.0 0.0 112.3745 3.41991 -8.96896 33.517 23.3883 -22.7198 0.0 31.2674 0.0 -11.9467 -1.65519 -2.16105 0.0 0.0 0.0 0.0 0.0 0.0 3.98748 -18.858 6.7581 0.0 16.9611 0.0 -10.7308 4.2859 0.0770501 0.0 -37.8107 0.0 2.58182 -19.3437 2.80045 0.0 11.4078 0.0 8.91106 13.0143 -0.814451 0.0 -28.9463 0.0 
  2.254290008544922 5.867839965820313 9.77552978515625 179.043 76.0356 166.925 4.49492 -1.30719 -2.16103 10.2755 16.2301 -2.38096 -4.02092 11.0419 2.23073 20.7748 -52.6942 23.725 -111.1051 -2.54934 2.15675 -41.2405 14.7655 34.9383 0.0 40.1518 0.0 18.0484 -8.88487 5.53723 0.0 0.0 0.0 0.0 0.0 0.0 112.4365 3.68176 -8.88206 33.1257 23.3978 -23.0791 0.0 32.4894 0.0 -13.0239 -0.577151 -2.55189 0.0 0.0 0.0 0.0 0.0 0.0 3.50667 -19.488 6.31459 0.0 16.768 0.0 -10.4207 4.3023005 0.552195 0.0 -37.7412 0.0 2.09087 -20.3383 2.09948 0.0 11.9163 0.0 9.16929 13.11968 -0.104378 0.0 -29.113201 0.0 
  2.322489929199219 5.89343017578125 9.772680053710937 178.533 75.7472 167.318 4.57294 -0.853509 -1.81353 10.2019 16.7576 -2.09221 -4.38372 10.0175 2.34568 21.0678 -53.1436 23.4169 -111.1051 -2.21699 1.93293 -41.3809 15.5668 34.4026 0.0 40.8138 0.0 19.0582 -8.97197 6.05373 0.0 0.0 0.0 0.0 0.0 0.0 112.4458 3.8572 -9.07085 32.757 23.3263 -23.1141 0.0 33.4511 0.0 -13.8714 -0.0781059 -1.47549 0.0 0.0 0.0 0.0 0.0 0.0 3.05501 -19.9475 6.03918 0.0 16.5888 0.0 -10.1082 4.3996 0.897487 0.0 -37.6856 0.0 1.53186 -21.0928 0.901039 0.0 12.2304 0.0 9.2613 13.44222 1.07731 0.0 -29.2313 0.0 
  2.3883799743652343 5.916309814453125 9.769879760742187 177.666 75.4559 167.884 4.47498 -0.406977 -1.43515 10.2836 17.1494 -1.74192 -4.7572 9.20276 2.48517 21.3394 -53.5306 23.1836 -111.2376 -2.24445 2.20759 -41.3882 16.6024 33.6358 0.0 42.1217 0.0 20.3777 -9.38946 6.03014 0.0 0.0 0.0 0.0 0.0 0.0 112.3711 3.97771 -9.47801 32.4737 23.5001 -22.9702 0.0 33.8048 0.0 -14.9496 0.748841 -1.39245 0.0 0.0 0.0 0.0 0.0 0.0 2.62672 -20.336 6.33966 0.0 16.3291 0.0 -9.70775 4.5863 0.926613 0.0 -37.7495 0.0 0.956009 -21.9376 -0.0802922 0.0 12.6734 0.0 9.44666 13.73379 2.21795 0.0 -29.467201 0.0 
  2.4552699279785157 5.939810180664063 9.766849975585938 176.645 74.9539 168.738 4.43173 -0.216392 -1.157 10.2803 17.3577 -1.47606 -4.96042 8.85558 2.60015 21.7127 -53.9362 23.2804 -111.122696 -2.43607 2.35684 -41.6982 17.3369 33.3092 0.0 43.8063 0.0 21.9583 -9.89699 5.97827 0.0 0.0 0.0 0.0 0.0 0.0 112.226105 4.15375 -9.83884 32.5059 23.6673 -22.9538 0.0 33.7796 0.0 -15.8017 0.375618 -0.304568 0.0 0.0 0.0 0.0 0.0 0.0 2.17035 -20.9457 6.86045 0.0 16.0185 0.0 -9.23069 4.8778 0.737941 0.0 -37.7763 0.0 0.290224 -23.0116 -1.31217 0.0 13.1671 0.0 9.66731 14.023449 3.41903 0.0 -29.7224 0.0 
  2.517169952392578 5.95094970703125 9.764669799804688 175.328 74.643 169.583 4.22169 -0.092139 -0.828643 10.309 17.6447 -1.16439 -5.12231 8.92029 2.78488 22.2967 -54.3748 23.6824 -111.0169 -2.67195 2.46806 -42.0574 17.6689 33.1377 0.0 45.7612 0.0 23.2164 -10.1372 6.06154 0.0 0.0 0.0 0.0 0.0 0.0 112.1393 4.46095 -10.1473 32.61 23.714 -22.9236 0.0 33.2807 0.0 -16.296 -0.0219015 0.22647 0.0 0.0 0.0 0.0 0.0 0.0 1.71569 -21.0624 7.97486 0.0 15.3629 0.0 -8.71051 5.24084 0.339534 0.0 -37.870102 0.0 -0.469716 -23.9329 -3.07469 0.0 13.7553 0.0 9.67552 14.386624 5.18415 0.0 -30.043701 0.0 
